<svg width="1200" height="1250" viewBox="0 0 1200 1250" fill="none" xmlns="http://www.w3.org/2000/svg">
<rect width="1200" height="650" transform="translate(0 600)" fill="#265D3E"/>
<rect width="1200" height="600" fill="#FFAA51"/>
<path d="M146.072 609.195C146.072 663.02 101.508 706.654 46.536 706.654C-8.43623 706.654 -53 663.02 -53 609.195C-53 555.37 -8.43623 511.736 46.536 511.736C101.508 511.736 146.072 555.37 146.072 609.195Z" fill="#7C8046"/>
<ellipse cx="186.288" cy="658.416" rx="91.4927" ry="89.5837" fill="#7C8046"/>
<ellipse cx="297.387" cy="586.06" rx="55.8005" ry="54.6362" fill="#7C8046"/>
<ellipse cx="400.944" cy="620.516" rx="75.9087" ry="74.3249" fill="#7C8046"/>
<ellipse cx="516.064" cy="586.552" rx="91.4927" ry="89.5837" fill="#7C8046"/>
<ellipse cx="644.254" cy="615.593" rx="61.8329" ry="60.5428" fill="#7C8046"/>
<ellipse cx="754.85" cy="569.325" rx="75.9087" ry="74.3249" fill="#7C8046"/>
<ellipse cx="873.992" cy="631.837" rx="88.4764" ry="86.6303" fill="#7C8046"/>
<ellipse cx="980.063" cy="586.06" rx="65.8546" ry="64.4805" fill="#7C8046"/>
<ellipse cx="1056.47" cy="631.344" rx="75.9087" ry="74.3249" fill="#7C8046"/>
<ellipse cx="1163.05" cy="586.06" rx="83.952" ry="82.2004" fill="#7C8046"/>
</svg>
