<svg width="52" height="52" viewBox="0 0 52 52" fill="none" xmlns="http://www.w3.org/2000/svg">
<path d="M12.9048 0C6.34365 0 0 6.34365 0 12.9048V39.0952C0 45.6563 5.93889 51.5 12.5 51.5H39.0952C45.6563 51.5 51.5 45.6563 51.5 39.0952V12.9048C51.5 6.34365 45.6563 0 39.0952 0H12.9048ZM12.9048 3.38095H39.0952C44.3698 3.38095 48.619 7.63016 48.619 12.9048V39.0952C48.619 44.3698 44.3698 48.619 39.0952 48.619H12.9048C7.63016 48.619 3.38095 44.3698 3.38095 39.0952V12.9048C3.38095 7.63016 7.63016 3.38095 12.9048 3.38095ZM11.7143 14.0952C9.75599 14.0952 8.14286 15.7084 8.14286 17.6667V34.3333C8.14286 36.2916 9.75599 37.9048 11.7143 37.9048H40.2857C42.244 37.9048 43.8571 36.2916 43.8571 34.3333V17.6667C43.8571 15.7084 42.244 14.0952 40.2857 14.0952H11.7143ZM12.2072 16.4762H39.7905L29.1878 27.0626C27.4106 28.8369 24.5677 28.8367 22.7913 27.0603L12.2072 16.4762ZM41.4762 18.1573V33.8427L33.6218 26L41.4762 18.1573ZM10.5238 18.1596L18.3642 26L10.5238 33.8404V18.1596ZM31.9384 27.6811L39.7928 35.5238H12.2072L20.0476 27.6834L21.1079 28.7437C23.7934 31.4292 28.1817 31.4312 30.8689 28.7483L31.9384 27.6811Z" fill="white"/>
</svg>
