<svg width="52" height="52" viewBox="0 0 52 52" fill="none" xmlns="http://www.w3.org/2000/svg">
<mask id="path-1-inside-1_33_660" fill="white">
<path d="M15.7727 0C7.62782 0 0 7.62782 0 15.7727V36.2273C0 44.3722 7.62782 52 15.7727 52H36.2273C44.3722 52 52 44.3722 52 36.2273V15.7727C52 7.62782 44.3722 0 36.2273 0H15.7727ZM15.7727 3.27273H36.2273C43.1437 3.27273 48.7273 8.85627 48.7273 15.7727V36.2273C48.7273 43.1437 43.1437 48.7273 36.2273 48.7273H15.7727C8.85627 48.7273 3.27273 43.1437 3.27273 36.2273V15.7727C3.27273 8.85627 8.85627 3.27273 15.7727 3.27273ZM39.6364 10.0909C39.0336 10.0909 38.4555 10.3304 38.0293 10.7566C37.6031 11.1828 37.3636 11.7609 37.3636 12.3636C37.3636 12.9664 37.6031 13.5445 38.0293 13.9707C38.4555 14.3969 39.0336 14.6364 39.6364 14.6364C40.2391 14.6364 40.8172 14.3969 41.2434 13.9707C41.6696 13.5445 41.9091 12.9664 41.9091 12.3636C41.9091 11.7609 41.6696 11.1828 41.2434 10.7566C40.8172 10.3304 40.2391 10.0909 39.6364 10.0909ZM26 13C19.1099 13 13 19.1099 13 26C13 32.8901 19.1099 39 26 39C32.8901 39 39 32.8901 39 26C39 19.1099 32.8901 13 26 13ZM26 15.7727C31.6618 15.7727 36.2273 20.3382 36.2273 26C36.2273 31.6618 31.6618 36.2273 26 36.2273C20.3382 36.2273 15.7727 31.6618 15.7727 26C15.7727 20.3382 20.3382 15.7727 26 15.7727Z"/>
</mask>
<path d="M15.7727 0C7.62782 0 0 7.62782 0 15.7727V36.2273C0 44.3722 7.62782 52 15.7727 52H36.2273C44.3722 52 52 44.3722 52 36.2273V15.7727C52 7.62782 44.3722 0 36.2273 0H15.7727ZM15.7727 3.27273H36.2273C43.1437 3.27273 48.7273 8.85627 48.7273 15.7727V36.2273C48.7273 43.1437 43.1437 48.7273 36.2273 48.7273H15.7727C8.85627 48.7273 3.27273 43.1437 3.27273 36.2273V15.7727C3.27273 8.85627 8.85627 3.27273 15.7727 3.27273ZM39.6364 10.0909C39.0336 10.0909 38.4555 10.3304 38.0293 10.7566C37.6031 11.1828 37.3636 11.7609 37.3636 12.3636C37.3636 12.9664 37.6031 13.5445 38.0293 13.9707C38.4555 14.3969 39.0336 14.6364 39.6364 14.6364C40.2391 14.6364 40.8172 14.3969 41.2434 13.9707C41.6696 13.5445 41.9091 12.9664 41.9091 12.3636C41.9091 11.7609 41.6696 11.1828 41.2434 10.7566C40.8172 10.3304 40.2391 10.0909 39.6364 10.0909ZM26 13C19.1099 13 13 19.1099 13 26C13 32.8901 19.1099 39 26 39C32.8901 39 39 32.8901 39 26C39 19.1099 32.8901 13 26 13ZM26 15.7727C31.6618 15.7727 36.2273 20.3382 36.2273 26C36.2273 31.6618 31.6618 36.2273 26 36.2273C20.3382 36.2273 15.7727 31.6618 15.7727 26C15.7727 20.3382 20.3382 15.7727 26 15.7727Z" fill="white"/>
<path d="M15.7727 -24C4.25514 -24 -5.53851 -18.7386 -12.1385 -12.1385C-18.7386 -5.5385 -24 4.25515 -24 15.7727H24C24 19.1454 22.5525 21.0527 21.8026 21.8026C21.0527 22.5525 19.1454 24 15.7727 24V-24ZM-24 15.7727V36.2273H24V15.7727H-24ZM-24 36.2273C-24 47.7449 -18.7386 57.5385 -12.1385 64.1385C-5.53851 70.7386 4.25514 76 15.7727 76V28C19.1454 28 21.0527 29.4475 21.8026 30.1974C22.5525 30.9473 24 32.8546 24 36.2273H-24ZM15.7727 76H36.2273V28H15.7727V76ZM36.2273 76C47.7449 76 57.5385 70.7386 64.1385 64.1385C70.7386 57.5385 76 47.7449 76 36.2273H28C28 32.8546 29.4475 30.9473 30.1974 30.1974C30.9473 29.4475 32.8546 28 36.2273 28V76ZM76 36.2273V15.7727H28V36.2273H76ZM76 15.7727C76 4.25515 70.7386 -5.53851 64.1385 -12.1385C57.5385 -18.7386 47.7449 -24 36.2273 -24V24C32.8546 24 30.9473 22.5525 30.1974 21.8026C29.4475 21.0527 28 19.1454 28 15.7727H76ZM36.2273 -24H15.7727V24H36.2273V-24ZM15.7727 27.2727H36.2273V-20.7273H15.7727V27.2727ZM36.2273 27.2727C29.8889 27.2727 24.7273 22.1111 24.7273 15.7727H72.7273C72.7273 -4.39856 56.3986 -20.7273 36.2273 -20.7273V27.2727ZM24.7273 15.7727V36.2273H72.7273V15.7727H24.7273ZM24.7273 36.2273C24.7273 29.8889 29.8889 24.7273 36.2273 24.7273V72.7273C56.3986 72.7273 72.7273 56.3986 72.7273 36.2273H24.7273ZM36.2273 24.7273H15.7727V72.7273H36.2273V24.7273ZM15.7727 24.7273C22.1111 24.7273 27.2727 29.8889 27.2727 36.2273H-20.7273C-20.7273 56.3986 -4.39857 72.7273 15.7727 72.7273V24.7273ZM27.2727 36.2273V15.7727H-20.7273V36.2273H27.2727ZM27.2727 15.7727C27.2727 22.1111 22.1111 27.2727 15.7727 27.2727V-20.7273C-4.39857 -20.7273 -20.7273 -4.39856 -20.7273 15.7727H27.2727ZM39.6364 -13.9091C32.6684 -13.9091 25.9858 -11.1411 21.0587 -6.21399L54.9999 27.7271C50.9252 31.8018 45.3988 34.0909 39.6364 34.0909V-13.9091ZM21.0587 -6.21399C16.1316 -1.28687 13.3636 5.39572 13.3636 12.3636H61.3636C61.3636 18.126 59.0745 23.6525 54.9999 27.7271L21.0587 -6.21399ZM13.3636 12.3636C13.3636 19.3316 16.1316 26.0141 21.0587 30.9413L54.9999 -2.99987C59.0745 1.07482 61.3636 6.60125 61.3636 12.3636H13.3636ZM21.0587 30.9413C25.9858 35.8683 32.6684 38.6364 39.6364 38.6364V-9.36364C45.3988 -9.36364 50.9252 -7.07452 54.9999 -2.99987L21.0587 30.9413ZM39.6364 38.6364C46.6043 38.6364 53.2869 35.8683 58.214 30.9413L24.2729 -2.99987C28.3475 -7.07452 33.8739 -9.36364 39.6364 -9.36364V38.6364ZM58.214 30.9413C63.1411 26.0141 65.9091 19.3316 65.9091 12.3636H17.9091C17.9091 6.60125 20.1982 1.07482 24.2729 -2.99987L58.214 30.9413ZM65.9091 12.3636C65.9091 5.39572 63.1411 -1.28687 58.214 -6.21399L24.2729 27.7271C20.1982 23.6525 17.9091 18.126 17.9091 12.3636H65.9091ZM58.214 -6.21399C53.2869 -11.1411 46.6043 -13.9091 39.6364 -13.9091V34.0909C33.874 34.0909 28.3475 31.8018 24.2729 27.7271L58.214 -6.21399ZM26 -11C5.85507 -11 -11 5.85507 -11 26H37C37 29.693 35.4213 32.3522 33.8868 33.8868C32.3522 35.4213 29.693 37 26 37V-11ZM-11 26C-11 46.1449 5.85507 63 26 63V15C29.693 15 32.3522 16.5787 33.8868 18.1132C35.4213 19.6478 37 22.307 37 26H-11ZM26 63C46.1449 63 63 46.1449 63 26H15C15 22.307 16.5787 19.6478 18.1132 18.1132C19.6478 16.5787 22.307 15 26 15V63ZM63 26C63 5.85507 46.1449 -11 26 -11V37C22.307 37 19.6478 35.4213 18.1132 33.8868C16.5787 32.3522 15 29.693 15 26H63ZM26 39.7727C18.407 39.7727 12.2273 33.593 12.2273 26H60.2273C60.2273 7.08334 44.9167 -8.22727 26 -8.22727V39.7727ZM12.2273 26C12.2273 18.407 18.407 12.2273 26 12.2273V60.2273C44.9167 60.2273 60.2273 44.9167 60.2273 26H12.2273ZM26 12.2273C33.593 12.2273 39.7727 18.407 39.7727 26H-8.22727C-8.22727 44.9167 7.08334 60.2273 26 60.2273V12.2273ZM39.7727 26C39.7727 33.593 33.593 39.7727 26 39.7727V-8.22727C7.08334 -8.22727 -8.22727 7.08334 -8.22727 26H39.7727Z" fill="white" mask="url(#path-1-inside-1_33_660)"/>
</svg>
