<svg width="50" height="50" viewBox="0 0 50 50" fill="none" xmlns="http://www.w3.org/2000/svg">
<g clip-path="url(#clip0_33_665)">
<path d="M36.9974 28.7305C36.9 28.6837 33.2549 26.8888 32.6071 26.6557C32.3427 26.5607 32.0594 26.468 31.7581 26.468C31.2659 26.468 30.8524 26.7133 30.5304 27.1951C30.1662 27.7363 29.064 29.0248 28.7234 29.4097C28.6789 29.4605 28.6182 29.5212 28.5818 29.5212C28.5492 29.5212 27.9851 29.2889 27.8143 29.2148C23.9041 27.5162 20.936 23.4316 20.5291 22.7428C20.4709 22.6438 20.4685 22.5988 20.468 22.5988C20.4823 22.5464 20.6138 22.4146 20.6817 22.3466C20.8802 22.1501 21.0953 21.8912 21.3034 21.6407C21.4019 21.5221 21.5006 21.4032 21.5976 21.2912C21.8995 20.9399 22.0339 20.6672 22.1898 20.3513L22.2714 20.1872C22.6519 19.4311 22.3269 18.7932 22.2219 18.5872C22.1357 18.4148 20.5966 14.7001 20.433 14.3099C20.0394 13.3682 19.5195 12.9297 18.7969 12.9297C18.7299 12.9297 18.7969 12.9297 18.5157 12.9415C18.1734 12.956 16.3089 13.2014 15.4846 13.7211C14.6104 14.2722 13.1315 16.029 13.1315 19.1186C13.1315 21.8993 14.8961 24.5248 15.6537 25.5234C15.6726 25.5485 15.7071 25.5997 15.7573 25.673C18.6588 29.9104 22.2758 33.0506 25.9425 34.5154C29.4726 35.9255 31.1442 36.0885 32.0945 36.0885H32.0946C32.494 36.0885 32.8136 36.0571 33.0956 36.0294L33.2745 36.0123C34.494 35.9042 37.1739 34.5156 37.7834 32.8216C38.2636 31.4873 38.3903 30.0295 38.0708 29.5005C37.8519 29.1407 37.4748 28.9597 36.9974 28.7305Z" fill="white"/>
<path d="M25.4438 0C11.9022 0 0.885352 10.9341 0.885352 24.3739C0.885352 28.7208 2.04866 32.9758 4.2524 36.6998L0.0343779 49.1422C-0.0441935 49.3742 0.014248 49.6307 0.185839 49.8054C0.309703 49.9318 0.477722 50 0.649313 50C0.71506 50 0.781293 49.9901 0.845904 49.9695L13.8199 45.8468C17.3703 47.7437 21.3829 48.745 25.444 48.745C38.9842 48.7451 50 37.8122 50 24.3739C50 10.9341 38.9842 0 25.4438 0ZM25.4438 43.6679C21.6225 43.6679 17.9214 42.5644 14.7399 40.4768C14.6329 40.4065 14.5087 40.3705 14.3837 40.3705C14.3177 40.3705 14.2514 40.3805 14.187 40.401L7.68779 42.4669L9.78584 36.2771C9.8537 36.0768 9.81977 35.8558 9.69477 35.6851C7.27204 32.3747 5.99136 28.4635 5.99136 24.3739C5.99136 13.7338 14.7177 5.07727 25.4436 5.07727C36.1683 5.07727 44.8936 13.7338 44.8936 24.3739C44.8938 35.0127 36.1686 43.6679 25.4438 43.6679Z" fill="white"/>
</g>
<defs>
<clipPath id="clip0_33_665">
<rect width="50" height="50" fill="white"/>
</clipPath>
</defs>
</svg>
