<svg width="51" height="35" viewBox="0 0 51 35" fill="none" xmlns="http://www.w3.org/2000/svg">
<path fill-rule="evenodd" clip-rule="evenodd" d="M2.68419 0C1.62211 0 0.761108 0.861 0.761108 1.92308C0.761108 2.98515 1.62211 3.84615 2.68419 3.84615H48.838C49.9 3.84615 50.7611 2.98515 50.7611 1.92308C50.7611 0.861 49.9 0 48.838 0H2.68419ZM0.761108 17.3077C0.761108 16.2456 1.62211 15.3846 2.68419 15.3846H48.838C49.9 15.3846 50.7611 16.2456 50.7611 17.3077C50.7611 18.3698 49.9 19.2308 48.838 19.2308H2.68419C1.62211 19.2308 0.761108 18.3698 0.761108 17.3077ZM0.761108 32.6923C0.761108 31.6304 1.62211 30.7692 2.68419 30.7692H48.838C49.9 30.7692 50.7611 31.6304 50.7611 32.6923C50.7611 33.7542 49.9 34.6154 48.838 34.6154H2.68419C1.62211 34.6154 0.761108 33.7542 0.761108 32.6923Z" fill="#FFAA51"/>
</svg>
