<svg width="425" height="439" viewBox="0 0 425 439" fill="none" xmlns="http://www.w3.org/2000/svg">
<path d="M213.044 429.816C325.856 429.816 417.307 380.931 417.307 320.628C417.307 260.325 325.856 211.44 213.044 211.44C100.232 211.44 8.78049 260.325 8.78049 320.628C8.78049 380.931 100.232 429.816 213.044 429.816Z" fill="#F5F5F5"/>
<path d="M318.725 396.25C348.478 396.25 372.598 380.86 372.598 361.876C372.598 342.892 348.478 327.503 318.725 327.503C288.971 327.503 264.852 342.892 264.852 361.876C264.852 380.86 288.971 396.25 318.725 396.25Z" fill="#E0E0E0"/>
<path d="M119.195 373.615L43.5455 328.495C40.902 326.923 40.902 324.368 43.5455 322.797L180.285 241.222C181.767 240.447 183.405 240.043 185.066 240.043C186.727 240.043 188.365 240.447 189.847 241.222L265.498 286.342C268.133 287.923 268.133 290.478 265.498 292.049L128.758 373.615C127.277 374.395 125.639 374.801 123.977 374.801C122.315 374.801 120.676 374.395 119.195 373.615Z" fill="#E0E0E0"/>
<path d="M88.5785 38.6846L80.75 43.338C80.7935 42.9826 80.8162 42.6249 80.818 42.2668V39.9401C80.818 35.7784 77.996 34.1014 74.511 36.1735C73.015 37.1258 71.7339 38.3982 70.754 39.905C70.1845 34.6897 66.215 32.7405 61.404 35.6116C56.1935 38.7197 51.969 46.2793 51.969 52.4955V56.0075C51.9353 57.3989 52.2085 58.7801 52.768 60.0463L46.291 63.9095C45.2719 64.5951 44.4237 65.5193 43.8153 66.607C43.2068 67.6947 42.8552 68.9153 42.789 70.1696C42.789 72.4788 44.353 73.4095 46.291 72.2593L88.5615 47.0519C89.5792 46.3647 90.4263 45.4402 91.0346 44.3528C91.6429 43.2654 91.9953 42.0456 92.0635 40.7918C92.0805 38.4651 90.508 37.5344 88.5785 38.6846Z" fill="#EBEBEB"/>
<path d="M126.123 56.1393L120.232 59.6513C120.232 59.3791 120.283 59.1157 120.283 58.8523V57.07C120.283 53.9355 118.15 52.68 115.523 54.234C114.389 54.9556 113.421 55.9233 112.684 57.07C112.251 53.1277 109.284 51.6527 105.621 53.8214C101.694 56.1656 98.498 61.8726 98.498 66.5611V69.1951C98.4742 70.2447 98.6805 71.2862 99.1015 72.2418L94.214 75.1568C93.4437 75.6769 92.803 76.3773 92.3437 77.201C91.8844 78.0248 91.6195 78.9487 91.5705 79.898C91.5705 81.654 92.7605 82.3476 94.214 81.4784L126.123 62.4521C126.89 61.9337 127.529 61.236 127.987 60.4153C128.444 59.5947 128.709 58.6742 128.758 57.7285C128.758 55.9812 127.576 55.314 126.123 56.1393Z" fill="#EBEBEB"/>
<path d="M112.387 321.857C115.328 303.419 114.861 296.773 107.109 280.363C102.819 271.558 96.2562 264.15 88.145 258.957C81.413 254.787 74.9955 253.487 69.5045 256.095C65.926 257.79 63.41 262.434 64.4045 267.509C65.314 272.022 73.27 280.082 80.5545 286.588C91.6045 296.509 105.978 310.215 107.908 334.773L106.65 347.319L112.387 321.857Z" fill="#FFAA51"/>
<path opacity="0.2" d="M112.387 321.857C115.328 303.419 114.861 296.773 107.109 280.363C102.819 271.558 96.2562 264.15 88.145 258.957C81.413 254.787 74.9955 253.487 69.5045 256.095C65.926 257.79 63.41 262.434 64.4045 267.509C65.314 272.022 73.27 280.082 80.5545 286.588C91.6045 296.509 105.978 310.215 107.908 334.773L106.65 347.319L112.387 321.857Z" fill="black"/>
<path d="M109.437 331.717C109.294 331.675 109.171 331.58 109.09 331.451C109.009 331.322 108.975 331.167 108.995 331.015C113.687 298.125 92.327 271.408 75.1145 264.77C74.9641 264.711 74.8424 264.593 74.7755 264.442C74.7087 264.29 74.7022 264.118 74.7575 263.962C74.7857 263.885 74.8284 263.815 74.8831 263.755C74.9377 263.695 75.0033 263.648 75.076 263.614C75.1486 263.581 75.227 263.562 75.3066 263.56C75.3861 263.558 75.4653 263.572 75.5395 263.602C93.1345 270.389 114.971 297.651 110.194 331.208C110.183 331.29 110.156 331.368 110.115 331.438C110.074 331.509 110.02 331.571 109.956 331.62C109.892 331.669 109.819 331.704 109.742 331.724C109.665 331.744 109.584 331.747 109.505 331.735L109.437 331.717Z" fill="white"/>
<path d="M111.579 359.392C111.282 359.664 110.976 359.936 110.661 360.199C106.471 363.711 100.155 364.686 94.8855 364.8C91.409 364.87 86.7255 364.949 83.776 362.781C82.314 361.71 81.277 359.804 81.736 358.022C82.229 356.09 84.286 354.686 84.1585 352.693C80.2485 352.078 76.058 353.843 72.403 352.289C69.649 351.121 67.9065 348.355 66.334 345.748C65.45 344.176 64.447 342.42 64.9485 340.664C65.5435 338.609 67.83 337.731 69.802 337.064C70.3338 336.922 70.8315 336.668 71.264 336.318C71.4775 336.138 71.6345 335.897 71.7147 335.625C71.795 335.353 71.7949 335.062 71.7145 334.79C71.468 334.14 70.703 333.912 70.0145 333.824C68.5865 333.614 67.1415 333.596 65.7645 333.306C64.3258 333.084 63.0021 332.366 62.0075 331.269C60.911 329.908 60.6815 328.03 60.5455 326.265C60.2862 323.264 60.2011 320.25 60.2905 317.239C60.2905 316.519 59.942 309.337 59.704 309.469C66.504 306.624 74.154 305.886 81.3535 306.167C85.391 306.325 91.358 307.203 93.7635 311.111C94.411 312.235 94.7763 313.508 94.826 314.816C94.826 315.281 94.554 317.722 94.826 317.897C94.9356 317.955 95.0608 317.972 95.1812 317.947C95.3016 317.921 95.4101 317.854 95.489 317.757C95.643 317.558 95.748 317.323 95.795 317.072C96.1605 315.79 96.764 314.763 97.138 313.56C97.512 312.357 97.4355 311.049 98.226 310.048C98.6319 309.622 99.1254 309.296 99.6698 309.094C100.214 308.892 100.796 308.819 101.371 308.88C105.621 309.003 109.242 312.568 110.857 316.651C112.472 320.733 112.506 325.281 112.514 329.689L114.554 325.378C116.926 320.347 119.595 329.68 120.011 331.436C121.23 336.445 121.093 341.704 119.613 346.638C118.133 351.571 115.369 355.989 111.622 359.409L111.579 359.392Z" fill="#FFAA51"/>
<path d="M111.962 360.524C111.855 360.51 111.754 360.464 111.672 360.393C111.589 360.321 111.527 360.227 111.494 360.121C105.612 341.27 77.7155 316.37 67.0395 312.603C66.8941 312.553 66.7739 312.445 66.7054 312.304C66.6368 312.162 66.6255 311.998 66.674 311.848C66.7243 311.697 66.8302 311.573 66.9686 311.502C67.1071 311.432 67.2669 311.42 67.4135 311.471C78.268 315.299 106.615 340.594 112.599 359.761C112.645 359.911 112.631 360.074 112.561 360.213C112.491 360.353 112.37 360.459 112.225 360.507C112.141 360.538 112.05 360.544 111.962 360.524Z" fill="white"/>
<path d="M78.149 343.298C78.0505 343.299 77.9538 343.272 77.8697 343.219C77.7855 343.166 77.7174 343.09 77.673 342.999C77.6385 342.936 77.6167 342.865 77.6088 342.793C77.6008 342.72 77.6069 342.646 77.6267 342.576C77.6465 342.506 77.6795 342.44 77.7239 342.384C77.7683 342.327 77.8232 342.279 77.8855 342.244C84.9164 338.866 92.8705 338.136 100.368 340.181C99.161 330.778 101.158 323.297 102.365 318.784V318.617C102.405 318.474 102.498 318.352 102.623 318.278C102.749 318.205 102.897 318.184 103.037 318.222C103.176 318.263 103.293 318.359 103.363 318.489C103.433 318.619 103.45 318.773 103.411 318.916V319.083C102.187 323.648 100.147 331.296 101.558 340.866C101.575 340.96 101.567 341.056 101.536 341.146C101.504 341.235 101.45 341.314 101.379 341.375C101.31 341.436 101.227 341.478 101.138 341.498C101.049 341.518 100.957 341.515 100.869 341.489C93.4219 339.248 85.4402 339.872 78.404 343.245C78.324 343.283 78.2368 343.301 78.149 343.298Z" fill="white"/>
<path d="M225.752 32.6178L115.6 98.3361C113.857 99.3733 112.397 100.85 111.357 102.628C110.316 104.406 109.729 106.427 109.65 108.503V355.59C109.65 359.761 112.141 364.625 115.209 366.46C118.278 368.295 123.599 368.084 127.109 366.003L236.836 300.566C238.673 299.324 240.203 297.654 241.301 295.689C242.4 293.725 243.036 291.522 243.16 289.257V43.0221C243.16 38.8604 240.669 33.9962 237.592 32.1612C234.515 30.3262 229.245 30.5369 225.752 32.6178Z" fill="#37474F"/>
<path d="M125.639 366.784C122.239 368.145 117.921 368.075 115.269 366.495C112.2 364.66 109.71 359.796 109.71 355.625V108.468C109.774 106.491 110.324 104.564 111.308 102.866L121.55 108.872C119.778 111.002 118.74 113.679 118.601 116.484V360.928C118.558 365.942 121.627 368.321 125.639 366.784Z" fill="#263238"/>
<path d="M124.1 106.484C122.479 107.581 121.13 109.056 120.162 110.79C119.194 112.524 118.633 114.468 118.524 116.467V360.928C118.524 366.556 122.383 368.83 127.101 366.047L236.844 300.601C238.682 299.359 240.211 297.689 241.31 295.725C242.408 293.76 243.045 291.557 243.168 289.292V43.0222C243.168 38.878 240.321 37.1747 236.844 39.2555L124.1 106.484Z" fill="#455A64"/>
<path d="M129.855 122.613C128.105 123.79 126.65 125.377 125.606 127.244C124.561 129.111 123.958 131.206 123.845 133.359V341.305C123.845 345.265 126.54 346.872 129.855 344.896L233.087 283.322C234.834 282.141 236.289 280.552 237.333 278.684C238.376 276.816 238.981 274.72 239.097 272.566V64.6209C239.097 60.6787 236.394 59.0719 233.087 61.0386L129.855 122.613Z" fill="#37474F"/>
<path d="M231.489 267.395V61.9956L129.855 122.578C128.105 123.755 126.65 125.341 125.606 127.209C124.561 129.076 123.958 131.171 123.845 133.324V338.776L225.48 278.194C227.232 277.008 228.689 275.412 229.733 273.536C230.777 271.66 231.378 269.556 231.489 267.395Z" fill="#FFAA51"/>
<path opacity="0.6" d="M231.489 267.395V61.9956L129.855 122.578C128.105 123.755 126.65 125.341 125.606 127.209C124.561 129.076 123.958 131.171 123.845 133.324V338.776L225.48 278.194C227.232 277.008 228.689 275.412 229.733 273.536C230.777 271.66 231.378 269.556 231.489 267.395Z" fill="white"/>
<path d="M172.865 85.9739L191.165 75.0604C192.253 74.4107 193.137 74.8672 193.137 76.0964C193.088 76.7813 192.884 77.4447 192.541 78.0333C192.199 78.6219 191.727 79.1193 191.165 79.4855L172.865 90.4342C171.777 91.0927 170.893 90.6273 170.893 89.4069C170.935 88.7144 171.136 88.0422 171.479 87.4455C171.822 86.8488 172.297 86.3444 172.865 85.9739Z" fill="black"/>
<path d="M204.264 67.2199C205.284 66.614 206.117 67.1057 206.117 68.3261C206.081 68.9906 205.895 69.637 205.573 70.2135C205.251 70.7899 204.802 71.2803 204.264 71.645C203.235 72.2508 202.411 71.7591 202.411 70.5387C202.445 69.8739 202.631 69.2269 202.953 68.6503C203.275 68.0736 203.724 67.5835 204.264 67.2199Z" fill="black"/>
<path d="M211.65 62.8034C212.67 62.1888 213.503 62.6805 213.503 63.9097C213.468 64.5731 213.282 65.2186 212.96 65.7937C212.638 66.3689 212.189 66.8575 211.65 67.2197C210.63 67.8344 209.797 67.3427 209.797 66.1135C209.832 65.4501 210.018 64.8046 210.34 64.2294C210.662 63.6543 211.111 63.1657 211.65 62.8034Z" fill="black"/>
<path d="M152.346 98.1868C153.374 97.5722 154.207 98.0727 154.207 99.2931C154.172 99.9576 153.986 100.604 153.662 101.18C153.338 101.755 152.887 102.243 152.346 102.603C151.326 103.218 150.493 102.726 150.493 101.506C150.526 100.841 150.712 100.194 151.034 99.6167C151.356 99.0399 151.805 98.55 152.346 98.1868Z" fill="black"/>
<path d="M159.8 93.7616C160.829 93.1558 161.662 93.6475 161.662 94.8679C161.626 95.5325 161.44 96.1792 161.119 96.7558C160.797 97.3323 160.348 97.8225 159.809 98.1867C158.78 98.8013 157.947 98.3009 157.947 97.0804C157.983 96.416 158.169 95.7695 158.491 95.1931C158.813 94.6166 159.261 94.1263 159.8 93.7616Z" fill="black"/>
<path d="M231.489 245.84V267.413C231.284 271.078 229.69 274.513 227.052 276.974C226.569 277.427 226.042 277.827 225.48 278.168L223.55 279.301C214.812 271.785 208.182 266.034 208.182 266.034C193.137 247.684 194.871 233.856 196.707 233.698C196.92 233.698 197.285 233.592 197.795 233.478C202.662 232.474 207.684 232.605 212.496 233.861C217.307 235.118 221.786 237.467 225.607 240.739C227.061 241.924 229.075 243.698 231.489 245.84Z" fill="#FFA8A7"/>
<path d="M227.052 276.957C226.569 277.41 226.042 277.81 225.48 278.151L223.55 279.301L144.976 326.16C142.511 316.414 138.448 300.267 138.397 299.978C138.397 299.828 147.28 286.123 147.883 270.126C148.487 254.129 144.177 247.113 142.783 245.542C143.412 245.278 157.42 241.204 157.42 241.204L185.351 235.445L197.761 233.434C197.761 233.434 214.591 241.951 223.78 260.986C226.283 265.893 227.416 271.423 227.052 276.957Z" fill="#FFAA51"/>
<path opacity="0.2" d="M227.052 276.957C226.569 277.41 226.042 277.81 225.48 278.151L223.55 279.301L144.976 326.16C142.511 316.414 138.448 300.267 138.397 299.978C138.397 299.828 147.28 286.123 147.883 270.126C148.487 254.129 144.177 247.113 142.783 245.542C143.412 245.278 157.42 241.204 157.42 241.204L185.351 235.445L197.761 233.434C197.761 233.434 214.591 241.951 223.78 260.986C226.283 265.893 227.416 271.423 227.052 276.957Z" fill="black"/>
<path d="M142.8 245.551C134.402 246.516 128.775 250.652 123.828 259.318V338.768L135.618 331.744L146.574 301.014C146.574 301.014 160.072 254.954 142.8 245.551Z" fill="#FFA8A7"/>
<path d="M156.307 230.3C156.604 229.22 154.131 225.699 153.578 224.724C152.499 222.81 151.309 220.958 150.068 219.149C147.441 215.338 144.968 211.44 142.265 207.735C139.203 203.732 136.599 199.378 134.504 194.758C131.895 188.7 130.586 181.878 131.835 175.372C133.085 168.866 137.139 162.764 143.038 160.139C145.588 147.469 156.553 137.091 169.006 135.555C181.9 133.957 195.56 141.007 208.004 135.045C209.551 134.299 211.055 133.289 212.755 133.14C216.555 132.745 219.717 136.705 220.074 140.638C220.431 144.572 218.765 148.365 217.158 151.938C218.627 152.406 219.935 153.301 220.924 154.518C221.912 155.734 222.54 157.219 222.733 158.795C222.925 160.37 222.672 161.97 222.006 163.401C221.34 164.832 220.288 166.035 218.977 166.864C221.111 172.597 219.02 179.332 215.033 183.88C211.047 188.428 205.454 191.132 199.818 193.09C194.183 195.048 188.335 196.4 182.886 198.832C176.494 201.745 170.8 206.074 166.207 211.512C161.614 216.949 158.234 223.363 156.307 230.3Z" fill="#263238"/>
<path d="M205.7 158.918C208.624 161.991 214.523 169.358 213.868 196.102C213.307 218.771 206.218 224.356 202.606 225.954C198.993 227.551 192.142 226.559 185.453 225.392V236.454C185.453 236.454 194.947 243.259 197.353 249.44C199.206 254.269 187.374 260.977 169.413 252.952C162.069 249.686 156.136 241.354 156.136 241.354L156.383 208.613C156.383 208.613 152.43 212.555 145.766 206.506C140.258 201.51 138.414 193.108 142.723 188.603C147.033 184.099 154.98 185.355 158.023 191.791C158.023 191.791 170.051 192.818 184.288 184.767C198.526 176.715 204.697 167.698 205.7 158.918Z" fill="#FFA8A7"/>
<path d="M189.015 192.054C189.017 192.613 188.861 193.161 188.565 193.629C188.268 194.098 187.845 194.466 187.348 194.688C186.851 194.91 186.302 194.976 185.769 194.878C185.236 194.78 184.742 194.522 184.349 194.137C183.957 193.752 183.682 193.256 183.561 192.711C183.439 192.166 183.474 191.596 183.664 191.072C183.853 190.548 184.187 190.092 184.624 189.763C185.062 189.433 185.584 189.244 186.125 189.218C186.495 189.205 186.865 189.269 187.212 189.405C187.558 189.541 187.876 189.747 188.145 190.011C188.414 190.275 188.629 190.591 188.778 190.942C188.928 191.293 189.008 191.671 189.015 192.054Z" fill="#263238"/>
<path d="M186.907 208.85L197.26 210.79C197.167 211.502 196.936 212.187 196.581 212.804C196.227 213.422 195.755 213.959 195.195 214.385C194.635 214.81 193.998 215.114 193.322 215.28C192.645 215.445 191.944 215.468 191.259 215.347C189.86 215.057 188.624 214.218 187.813 213.006C187.001 211.794 186.676 210.304 186.907 208.85Z" fill="#B16668"/>
<path d="M191.25 215.347C191.947 215.474 192.662 215.451 193.35 215.277C193.299 214.075 192.802 212.939 191.961 212.107C191.12 211.274 190.001 210.809 188.836 210.808C188.212 210.806 187.595 210.941 187.026 211.203C187.274 212.238 187.804 213.178 188.552 213.912C189.301 214.646 190.237 215.144 191.25 215.347Z" fill="#F28F8F"/>
<path d="M210.962 182.888L204.663 180.254C204.808 179.822 205.037 179.425 205.335 179.087C205.633 178.749 205.995 178.477 206.398 178.288C206.801 178.1 207.237 177.997 207.68 177.988C208.123 177.979 208.562 178.062 208.973 178.234C209.819 178.598 210.498 179.284 210.868 180.15C211.238 181.016 211.272 181.996 210.962 182.888Z" fill="#263238"/>
<path d="M209.508 189.947C209.512 190.506 209.357 191.054 209.063 191.523C208.768 191.993 208.346 192.362 207.849 192.585C207.353 192.809 206.804 192.877 206.27 192.781C205.737 192.684 205.243 192.428 204.849 192.044C204.455 191.66 204.179 191.165 204.056 190.621C203.932 190.076 203.967 189.506 204.154 188.981C204.342 188.456 204.674 188 205.111 187.669C205.548 187.338 206.069 187.147 206.61 187.12C206.98 187.108 207.349 187.172 207.695 187.308C208.041 187.444 208.358 187.649 208.627 187.911C208.896 188.174 209.113 188.489 209.264 188.838C209.415 189.188 209.498 189.564 209.508 189.947Z" fill="#263238"/>
<path d="M196.571 188.797L198.475 205.391L206.754 201.317L196.571 188.797Z" fill="#F28F8F"/>
<path d="M185.411 225.427C178.356 224.461 163.838 220.115 161.611 214.179C161.611 214.179 162.35 217.911 166.711 221.757C171.071 225.602 185.411 229.966 185.411 229.966V225.427Z" fill="#F28F8F"/>
<path d="M156.91 200.184C157.803 200.106 158.672 199.846 159.468 199.421C160.264 198.996 160.971 198.412 161.549 197.705C162.127 196.997 162.564 196.179 162.836 195.297C163.107 194.414 163.208 193.486 163.132 192.563C163.056 191.641 162.805 190.743 162.393 189.921C161.981 189.098 161.417 188.368 160.732 187.771C160.047 187.174 159.254 186.723 158.4 186.442C157.546 186.162 156.647 186.058 155.754 186.136L156.91 200.184Z" fill="#263238"/>
<path d="M214.625 272.549C219.623 269.564 223.669 262.329 223.669 256.367C223.669 250.406 219.623 248 214.625 250.976C209.627 253.953 205.59 261.196 205.59 267.149C205.59 273.102 209.636 275.525 214.625 272.549Z" fill="#F28F8F"/>
<path fill-rule="evenodd" clip-rule="evenodd" d="M209.5 268.668C209.797 268.37 211.2 266.912 211.463 266.622C211.597 266.494 211.7 266.335 211.763 266.158C211.827 265.981 211.849 265.791 211.829 265.604C211.829 265.121 211.786 263.848 211.786 263.488C211.783 263.312 211.817 263.138 211.886 262.977C211.955 262.816 212.057 262.673 212.186 262.557C212.92 261.703 213.78 260.973 214.736 260.397C215.452 259.974 216.25 259.719 217.073 259.651C217.362 259.651 217.354 259.958 217.345 260.266C217.337 260.573 217.345 260.924 217.345 261.249C217.345 261.346 217.345 261.425 217.345 261.504C217.363 261.675 217.391 261.845 217.43 262.013C217.473 262.294 217.609 262.355 217.745 262.364C217.881 262.373 219.156 262.628 219.683 262.715C220.21 262.803 220.312 262.408 220.431 262.171C220.55 261.934 220.694 261.688 220.83 261.425C221.033 261.007 221.144 260.548 221.153 260.081C221.282 258.951 221.014 257.81 220.397 256.868C220.208 256.637 219.969 256.457 219.7 256.341C219.071 256.121 218.393 256.1 217.753 256.28C215.376 256.716 213.219 257.992 211.65 259.888C208.888 263.128 209.1 263.4 208.777 264.182C208.306 265.365 208.122 266.649 208.242 267.922C208.48 268.8 208.828 269.195 208.956 269.186C209.083 269.177 209.211 268.984 209.5 268.668Z" fill="white"/>
<path opacity="0.5" d="M190.46 286.957C195.449 283.98 199.504 276.737 199.504 270.784C199.504 264.831 195.449 262.408 190.46 265.393C185.47 268.378 181.416 275.613 181.416 281.566C181.416 287.519 185.47 289.933 190.46 286.957Z" fill="white"/>
<path d="M190.536 279.59C189.338 280.31 188.36 279.547 188.36 277.887V272.689C188.372 271.848 188.575 271.021 188.953 270.275C189.331 269.529 189.873 268.886 190.536 268.396C191.735 267.676 192.712 268.44 192.712 270.091V275.297C192.698 276.138 192.494 276.965 192.117 277.71C191.739 278.456 191.198 279.099 190.536 279.59Z" fill="white"/>
<path d="M189.499 281.838C189.017 281.84 188.544 281.696 188.139 281.425C187.639 281.034 187.244 280.517 186.991 279.924C186.738 279.331 186.636 278.682 186.694 278.036C186.694 277.897 186.748 277.763 186.843 277.664C186.939 277.565 187.069 277.51 187.204 277.51C187.339 277.51 187.469 277.565 187.565 277.664C187.66 277.763 187.714 277.897 187.714 278.036C187.665 278.504 187.728 278.976 187.897 279.412C188.066 279.849 188.336 280.235 188.683 280.539C188.929 280.693 189.21 280.779 189.498 280.786C189.785 280.794 190.07 280.724 190.324 280.583C193.307 279.187 193.545 275.534 193.503 274.033C193.502 273.893 193.554 273.758 193.648 273.657C193.741 273.555 193.869 273.495 194.004 273.488C194.071 273.487 194.137 273.5 194.199 273.525C194.26 273.551 194.317 273.589 194.364 273.637C194.412 273.685 194.449 273.743 194.475 273.806C194.501 273.87 194.514 273.938 194.514 274.006C194.608 277.571 193.197 280.389 190.74 281.548C190.351 281.734 189.928 281.832 189.499 281.838Z" fill="white"/>
<path d="M189.244 284.349C189.132 284.349 189.022 284.311 188.933 284.24C188.844 284.17 188.78 284.071 188.751 283.959C188.722 283.847 188.729 283.728 188.772 283.62C188.815 283.513 188.892 283.424 188.989 283.366L191.539 281.829C191.597 281.793 191.661 281.77 191.728 281.76C191.794 281.751 191.862 281.755 191.927 281.773C191.992 281.791 192.053 281.822 192.106 281.865C192.159 281.908 192.203 281.962 192.236 282.022C192.301 282.144 192.319 282.287 192.284 282.422C192.249 282.556 192.165 282.671 192.049 282.742L189.499 284.279C189.423 284.329 189.334 284.353 189.244 284.349Z" fill="white"/>
<path opacity="0.5" d="M166.294 301.373C171.284 298.397 175.33 291.154 175.33 285.192C175.33 279.23 171.284 276.825 166.294 279.801C161.305 282.777 157.25 290.021 157.25 295.983C157.25 301.944 161.296 304.35 166.294 301.373Z" fill="white"/>
<path d="M165.172 290.399C164.898 290.401 164.628 290.328 164.39 290.188C164.104 289.993 163.874 289.722 163.724 289.404C163.575 289.086 163.511 288.732 163.54 288.379C163.578 287.551 163.807 286.745 164.207 286.027C164.608 285.309 165.169 284.701 165.844 284.253C166.111 284.015 166.443 283.869 166.794 283.835C167.146 283.801 167.498 283.88 167.804 284.063C168.109 284.245 168.352 284.521 168.499 284.852C168.646 285.184 168.689 285.554 168.623 285.912C168.585 286.74 168.357 287.546 167.956 288.264C167.555 288.982 166.994 289.59 166.32 290.039C165.974 290.259 165.578 290.383 165.172 290.399Z" fill="white"/>
<path d="M173.91 284.85C173.852 284.749 173.758 284.677 173.648 284.647C173.538 284.618 173.422 284.633 173.324 284.692L172.346 285.28V283.814C172.344 283.698 172.298 283.587 172.219 283.506C172.14 283.424 172.033 283.377 171.921 283.375C171.808 283.375 171.7 283.421 171.621 283.503C171.541 283.585 171.496 283.697 171.496 283.814V285.78L170.085 286.658C170.005 286.707 169.943 286.782 169.908 286.87C169.873 286.959 169.867 287.057 169.891 287.15C169.916 287.242 169.968 287.324 170.042 287.383C170.115 287.442 170.205 287.474 170.298 287.475C170.373 287.476 170.447 287.455 170.51 287.413L171.496 286.834V288.133C171.496 288.25 171.541 288.361 171.621 288.444C171.7 288.526 171.808 288.572 171.921 288.572C172.033 288.57 172.14 288.523 172.219 288.441C172.298 288.359 172.344 288.249 172.346 288.133V286.325L173.749 285.447C173.846 285.389 173.918 285.294 173.949 285.183C173.979 285.071 173.965 284.951 173.91 284.85Z" fill="white"/>
<path d="M169.652 290.996C169.164 290.745 168.619 290.636 168.076 290.679C167.533 290.722 167.011 290.917 166.566 291.242L165.3 291.997C164.149 292.759 163.19 293.794 162.504 295.015C161.818 296.237 161.425 297.61 161.356 299.021V299.951C162.605 300.662 164.305 300.54 166.192 299.416C168.204 298.125 169.865 296.327 171.02 294.192V293.963C171.064 293.388 170.961 292.811 170.721 292.29C170.481 291.769 170.112 291.323 169.652 290.996Z" fill="white"/>
<path opacity="0.5" d="M142.12 315.79C147.118 312.805 151.164 305.562 151.164 299.609C151.164 293.656 147.118 291.241 142.12 294.218C137.122 297.194 133.076 304.438 133.076 310.391C133.076 316.343 137.131 318.767 142.12 315.79Z" fill="white"/>
<path d="M142.12 311.444C143.695 310.389 145.005 308.964 145.945 307.285C146.884 305.607 147.426 303.722 147.526 301.786C147.526 298.274 145.104 296.79 142.12 298.564C140.549 299.623 139.241 301.049 138.301 302.727C137.362 304.404 136.819 306.287 136.714 308.222C136.723 311.787 139.137 313.227 142.12 311.444Z" fill="white"/>
<path opacity="0.3" d="M142.12 146.942C147.118 143.966 151.164 136.722 151.164 130.761C151.164 124.799 147.118 122.393 142.12 125.37C137.122 128.346 133.076 135.59 133.076 141.551C133.076 147.513 137.131 149.919 142.12 146.942Z" fill="white"/>
<path d="M142.12 129.707C140.549 130.766 139.241 132.192 138.301 133.87C137.362 135.548 136.819 137.43 136.714 139.365C136.714 141.481 137.564 142.877 138.89 143.228L138.295 146.31L141.1 143.114C141.47 142.981 141.826 142.811 142.163 142.605C143.737 141.55 145.048 140.124 145.987 138.446C146.927 136.767 147.469 134.883 147.569 132.947C147.526 129.373 145.104 127.934 142.12 129.707Z" fill="white"/>
<path opacity="0.3" d="M166.286 132.525C171.284 129.549 175.33 122.305 175.33 116.353C175.33 110.4 171.284 107.977 166.286 110.953C161.288 113.929 157.25 121.164 157.25 127.134C157.25 133.105 161.296 135.502 166.286 132.525Z" fill="white"/>
<path d="M170.366 113.833L168.921 114.711V113.929C168.921 113.429 168.666 113.183 168.351 113.368L164.229 115.826C164.047 115.972 163.901 116.16 163.802 116.375C163.703 116.59 163.654 116.826 163.659 117.064V117.845L162.214 118.723C161.838 119.028 161.535 119.419 161.33 119.866C161.125 120.312 161.023 120.802 161.033 121.296V128.926C161.033 129.962 161.56 130.48 162.214 130.093L170.366 125.229C170.741 124.924 171.043 124.532 171.248 124.086C171.453 123.64 171.555 123.151 171.547 122.657V115.018C171.547 113.965 171.02 113.438 170.366 113.833ZM163.855 124.606C163.822 124.651 163.781 124.689 163.736 124.72C163.617 124.782 163.515 124.72 163.464 124.641C163.274 124.138 163.181 123.601 163.192 123.061C163.192 120.708 164.586 117.968 166.286 116.915C166.454 116.816 166.63 116.734 166.813 116.669L166.311 116.326C166.243 116.246 166.199 116.146 166.186 116.04C166.172 115.934 166.189 115.826 166.235 115.729C166.328 115.492 166.498 115.369 166.617 115.448L167.756 116.23C167.795 116.266 167.826 116.311 167.846 116.361C167.867 116.411 167.877 116.465 167.875 116.52C167.874 116.664 167.839 116.805 167.773 116.932L166.711 118.855C166.683 118.909 166.645 118.957 166.6 118.995C166.584 119.017 166.564 119.035 166.54 119.047C166.516 119.059 166.49 119.066 166.464 119.066C166.438 119.066 166.412 119.059 166.388 119.047C166.364 119.035 166.344 119.017 166.328 118.995C166.278 118.897 166.252 118.787 166.252 118.675C166.252 118.563 166.278 118.454 166.328 118.355L166.787 117.52C166.601 117.58 166.422 117.66 166.252 117.758C165.492 118.322 164.87 119.062 164.436 119.919C164.002 120.776 163.768 121.725 163.753 122.692C163.744 123.13 163.819 123.566 163.974 123.974C164.006 124.081 164.012 124.195 163.992 124.305C163.971 124.416 163.924 124.519 163.855 124.606ZM166.286 125.484C166.116 125.587 165.936 125.672 165.75 125.739L166.218 126.125C166.273 126.214 166.302 126.318 166.302 126.423C166.302 126.529 166.273 126.633 166.218 126.722C166.184 126.809 166.132 126.887 166.065 126.95C166.031 126.979 165.989 126.994 165.946 126.994C165.902 126.994 165.86 126.979 165.827 126.95L164.747 126.072C164.709 126.032 164.68 125.984 164.662 125.93C164.645 125.877 164.639 125.821 164.645 125.765C164.646 125.622 164.685 125.483 164.756 125.361L165.895 123.526C166.022 123.324 166.192 123.289 166.277 123.447C166.319 123.552 166.335 123.666 166.325 123.779C166.314 123.893 166.278 124.001 166.218 124.097L165.716 124.904C165.9 124.846 166.077 124.767 166.243 124.667C167.016 124.112 167.65 123.375 168.093 122.517C168.536 121.659 168.776 120.705 168.793 119.733C168.802 119.298 168.727 118.865 168.572 118.46C168.545 118.35 168.544 118.234 168.571 118.124C168.598 118.013 168.651 117.912 168.725 117.828C168.878 117.643 169.048 117.635 169.116 117.828C169.307 118.328 169.399 118.862 169.388 119.399C169.388 121.717 167.994 124.457 166.286 125.475V125.484Z" fill="white"/>
<path d="M219.172 77.8522L191.972 94.0513C190.9 94.7718 190.008 95.7438 189.368 96.8881C188.728 98.0325 188.36 99.3168 188.292 100.636V149.515C188.292 151.938 189.932 152.921 191.972 151.71L219.172 135.511C220.243 134.788 221.134 133.816 221.773 132.672C222.413 131.528 222.783 130.244 222.853 128.926V80.0472C222.853 77.624 221.204 76.6406 219.172 77.8522Z" fill="#455A64"/>
<path d="M222.547 130.866C221.981 132.781 220.776 134.426 219.147 135.511L217.626 136.389L216.903 136.828C214.498 133.377 212.381 130.181 212.381 130.181C211.717 128.305 211.149 126.395 210.681 124.457C210.317 122.978 210.051 121.476 209.882 119.961C211.417 119.482 213.056 119.482 214.591 119.961C216.121 120.706 217.381 121.937 218.187 123.473C219.054 124.869 220.881 128.004 222.547 130.866Z" fill="#FFAA51"/>
<path opacity="0.3" d="M222.547 130.866C221.981 132.781 220.776 134.426 219.147 135.511L217.626 136.389L216.903 136.828C214.498 133.377 212.381 130.181 212.381 130.181C211.717 128.305 211.149 126.395 210.681 124.457C210.317 122.978 210.051 121.476 209.882 119.961C211.417 119.482 213.056 119.482 214.591 119.961C216.121 120.706 217.381 121.937 218.187 123.473C219.054 124.869 220.881 128.004 222.547 130.866Z" fill="black"/>
<path d="M217.651 136.415L216.929 136.845L209.95 141.007L208.879 141.639L194.905 149.962L194.336 150.296L194.268 147.811L194.973 136.292C194.973 134.071 196.087 125.229 196.087 125.229L199.257 123.921L201.17 123.14L201.799 122.885L202.054 122.78L207.341 120.593C207.689 120.462 208.029 120.356 208.352 120.268C208.458 120.234 208.566 120.207 208.675 120.189C209.087 120.08 209.508 120.009 209.933 119.979C213.86 119.663 215.96 122.709 216.929 127.582C217.33 130.51 217.571 133.459 217.651 136.415Z" fill="#FFAA51"/>
<path d="M197.353 139.312C197.353 139.312 196.027 144.58 194.905 149.963L194.336 150.305L191.786 151.824C189.848 152.851 188.318 151.824 188.318 149.515V138.461C189.032 133.825 189.848 130.699 191.029 128.645C192.211 126.59 194.115 125.958 196.087 125.229C197.88 126.608 198.619 133.193 197.353 139.312Z" fill="#FFAA51"/>
<path opacity="0.3" d="M197.353 139.312C197.353 139.312 196.027 144.58 194.905 149.963L194.336 150.305L191.786 151.824C189.848 152.851 188.318 151.824 188.318 149.515V138.461C189.032 133.825 189.848 130.699 191.029 128.645C192.211 126.59 194.115 125.958 196.087 125.229C197.88 126.608 198.619 133.193 197.353 139.312Z" fill="black"/>
<path d="M199.827 99.7231C199.284 99.9302 198.787 100.246 198.364 100.653C197.941 101.06 197.6 101.55 197.362 102.094C196.784 103.613 196.988 106.984 197.761 110.566C198.18 112.84 198.829 115.062 199.699 117.195C199.833 117.473 200.028 117.713 200.269 117.898C200.509 118.083 200.789 118.206 201.085 118.258L200.991 113.868L200.855 110.821C201.759 109.189 202.381 107.406 202.691 105.553C202.929 102.673 202.428 101.602 202.428 101.602L199.827 99.7231Z" fill="#263238"/>
<path d="M199.402 100.338L196.852 99.4598C196.956 99.0343 197.212 98.665 197.568 98.4244C197.923 98.1839 198.353 98.0897 198.773 98.1604C199.129 98.3695 199.393 98.7128 199.511 99.1185C199.628 99.5243 199.589 99.9611 199.402 100.338Z" fill="#263238"/>
<path d="M202.742 103.464C202.742 108.003 205.862 111.111 209.67 110.409C213.478 109.706 216.563 105.439 216.555 100.891C216.546 96.343 213.444 93.2349 209.627 93.9461C205.811 94.6572 202.734 98.9155 202.742 103.464Z" fill="#263238"/>
<path d="M200.957 110.312C200.336 111.067 199.826 109.495 199.308 108.942C198.789 108.389 197.081 107.819 196.231 110.11C195.381 112.402 197.013 115.097 198.288 115.571C200.158 116.265 200.991 113.868 200.991 113.868L201.186 123.781C202.997 126.722 207.306 127.336 209.372 126.327C211.641 125.229 210.222 123.429 208.7 122.104V119.083C209.749 119.087 210.794 118.957 211.811 118.697C213.511 118.065 214.361 116.379 214.897 114.087C215.895 108.707 215.895 103.181 214.897 97.8005C212.993 96.3957 206.397 97.8883 202.419 101.629C202.716 107.643 201.577 109.557 200.957 110.312Z" fill="#FFA8A7"/>
<path d="M215.849 92.7871C215.798 92.6817 215.713 92.5851 215.603 92.6027C215.511 92.6322 215.431 92.6905 215.373 92.7695C214.901 93.2979 214.395 93.7936 213.86 94.2533C213.992 93.4395 213.992 92.6088 213.86 91.7949C213.784 91.3033 213.665 90.1706 213.146 90.1443C212.84 90.1443 212.577 90.4779 212.347 90.7764C210.265 93.4719 207.562 92.8924 205.063 93.4104C202.972 93.867 200.447 95.3421 199.504 97.9409C199.07 99.1262 198.994 100.312 199.852 100.926C200.623 101.395 201.508 101.626 202.402 101.593C206.567 101.699 212.534 102.656 215.611 97.4668C216.058 96.6994 216.282 95.8157 216.257 94.9206C216.267 94.184 216.125 93.4537 215.841 92.7783L215.849 92.7871Z" fill="#263238"/>
<path d="M208.692 119.083C208.692 119.083 204.892 118.873 203.592 118.284C202.793 117.919 202.144 117.276 201.756 116.467C201.948 117.316 202.303 118.116 202.801 118.82C203.779 120.111 208.751 120.286 208.751 120.286L208.692 119.083Z" fill="#F28F8F"/>
<path d="M207.706 107.994C207.714 108.235 207.643 108.472 207.506 108.668C207.37 108.863 207.174 109.006 206.95 109.074C206.533 109.144 206.185 108.793 206.185 108.266C206.177 108.025 206.247 107.788 206.384 107.593C206.521 107.397 206.717 107.254 206.941 107.186C207.4 107.116 207.706 107.476 207.706 107.994Z" fill="#263238"/>
<path d="M206.89 104.728L205.266 106.098C205.157 105.822 205.134 105.517 205.201 105.228C205.269 104.938 205.422 104.677 205.64 104.482C205.73 104.391 205.839 104.325 205.958 104.287C206.078 104.25 206.205 104.243 206.328 104.267C206.45 104.291 206.566 104.346 206.664 104.426C206.762 104.506 206.839 104.61 206.89 104.728Z" fill="#263238"/>
<path d="M207.57 113.148L210.706 113.964C210.621 114.465 210.353 114.914 209.958 115.217C209.563 115.521 209.071 115.657 208.581 115.598C208.358 115.507 208.155 115.371 207.983 115.198C207.811 115.026 207.674 114.819 207.58 114.591C207.486 114.363 207.436 114.118 207.435 113.871C207.433 113.623 207.479 113.377 207.57 113.148Z" fill="#B16668"/>
<path d="M208.105 114.254C207.908 114.256 207.712 114.294 207.527 114.368C207.574 114.655 207.697 114.922 207.883 115.139C208.07 115.357 208.312 115.516 208.581 115.597C208.951 115.686 209.339 115.619 209.661 115.413C209.553 115.075 209.345 114.781 209.065 114.573C208.786 114.365 208.45 114.253 208.105 114.254Z" fill="#F28F8F"/>
<path d="M214.2 104.122L212.712 103.042C212.759 102.918 212.831 102.805 212.924 102.712C213.017 102.618 213.127 102.547 213.249 102.502C213.371 102.457 213.501 102.44 213.63 102.451C213.758 102.462 213.883 102.502 213.996 102.568C214.203 102.76 214.337 103.022 214.374 103.306C214.412 103.591 214.35 103.88 214.2 104.122Z" fill="#263238"/>
<path d="M213.707 106.616C213.715 106.857 213.644 107.094 213.507 107.289C213.371 107.485 213.175 107.627 212.95 107.695C212.525 107.774 212.185 107.415 212.185 106.896C212.178 106.655 212.248 106.418 212.385 106.223C212.522 106.027 212.718 105.885 212.942 105.817C213.35 105.738 213.707 106.098 213.707 106.616Z" fill="#263238"/>
<path d="M210.146 106.422L210.409 111.822L212.798 110.408L210.146 106.422Z" fill="#F28F8F"/>
<path d="M339.218 163.396C345.873 162.93 349.239 164.318 353.43 171.745C358.122 180.06 368.024 200.719 368.619 202.115C369.758 204.749 370.277 207.542 367.863 209.868C361.258 216.269 348.857 227.016 348.857 227.016L344.25 215.426L353.923 204.302L345.754 187.576L339.218 163.396Z" fill="#FFA8A7"/>
<path d="M353.923 204.302C354.951 206.151 356.152 207.892 357.51 209.5C355.601 208.684 354.01 207.235 352.988 205.382L353.923 204.302Z" fill="#F28F8F"/>
<path d="M337.671 163.422C340.142 162.905 342.684 162.869 345.168 163.317C348.568 164.124 351.45 166.881 354.348 172.176C357.247 177.47 363.562 190.965 363.562 190.965C363.562 190.965 361.157 196.417 351.407 199.991L339.652 182.518L337.671 163.422Z" fill="#FFAA51"/>
<path opacity="0.3" d="M337.671 163.422C340.142 162.905 342.684 162.869 345.168 163.317C348.568 164.124 351.45 166.881 354.348 172.176C357.247 177.47 363.562 190.965 363.562 190.965C363.562 190.965 361.157 196.417 351.407 199.991L339.652 182.518L337.671 163.422Z" fill="black"/>
<path d="M280.5 374.563C280.152 375.736 280.122 376.984 280.415 378.172C280.747 378.892 282.846 381.28 287.113 382.149C291.38 383.019 297.254 382.149 299.778 381.991C302.303 381.833 310.242 382.869 312.766 383.185C316.727 383.739 319.779 382.843 321.266 381.359C321.507 381.063 321.684 380.717 321.787 380.345C321.889 379.973 321.915 379.582 321.861 379.199C321.849 378.213 321.709 377.232 321.445 376.284L280.5 374.563Z" fill="#37474F"/>
<path d="M320.73 372C320.807 372.333 320.883 372.676 320.943 373.027C321.332 374.767 321.455 376.559 321.308 378.339C320.798 379.63 319.396 380.349 318.265 380.718C315.282 381.693 313.012 381.535 309.706 380.894C306.378 380.388 303.014 380.174 299.65 380.253C297.049 380.437 293.471 380.947 290.861 380.701C288.649 380.603 286.466 380.143 284.393 379.34C282.693 378.576 280.882 377.584 280.457 375.74C279.947 371.85 281.528 370.13 283.322 369.05C285.115 367.97 287.631 368.049 290.343 367.864C292.799 367.689 294.593 367.689 296.769 367.513C298.661 367.423 300.542 367.155 302.387 366.714C304.028 366.179 305.719 364.01 306.416 363.931C306.416 363.931 317.339 363.843 318.384 363.931C319.591 364.036 319.957 367.891 320.084 368.734C320.203 369.392 320.229 370.094 320.399 370.727C320.526 371.148 320.637 371.569 320.73 372Z" fill="#455A64"/>
<path d="M287.07 380.174C286.73 377.373 286.28 371.306 291.269 367.794H291.907C289.65 367.12 287.254 367.12 284.996 367.794C281.001 368.892 279.233 372.228 280.228 375.757C280.228 375.731 281.12 379.147 287.07 380.174Z" fill="#FAFAFA"/>
<path d="M301.648 366.916C300.033 368.391 299.472 371.754 299.472 371.754C299.26 373.018 297.049 373.203 297.262 371.991C297.598 370.315 298.248 368.722 299.174 367.302C299.933 366.889 300.805 366.753 301.648 366.916Z" fill="#FAFAFA"/>
<path d="M297.117 367.487C295.902 368.725 295.106 370.336 294.848 372.079C294.627 373.282 292.782 373.264 292.91 372.079C292.91 372.079 293.131 369.102 294.857 367.689C295.19 367.47 295.57 367.338 295.963 367.303C296.357 367.268 296.753 367.331 297.117 367.487Z" fill="#FAFAFA"/>
<path d="M318.75 355.695C318.75 355.695 318.461 362.956 318.07 365.353C317.832 366.776 316.038 368.259 311.559 368.101C308.405 367.996 305.932 368.268 306.059 365.722L306.331 358.312L318.75 355.695Z" fill="#FFA8A7"/>
<path d="M325.745 338.592C325.584 340.567 325.329 342.358 326.111 344.536C327.233 347.662 329.613 349.101 331.007 350.331C332.483 351.833 333.841 353.454 335.07 355.177C336.438 356.933 336.77 358.004 338.861 359.813C340.187 360.946 343.893 361.876 346.171 360.875C347.956 360.094 348.576 359.462 348.466 356.643C348.355 353.825 339.643 352.851 339.643 352.851L325.745 338.592Z" fill="#37474F"/>
<path d="M347.335 348.223C348.083 348.496 348.27 349.892 348.381 352.657C348.466 354.747 349.367 357.811 346.426 359.128C344.063 360.191 340.28 359.488 338.682 357.513C336.685 355.054 335.333 352.886 332.486 349.883C330.012 347.249 327.445 346.371 326.34 341.191C325.635 337.837 326.196 336.45 328.491 335.492C331.644 334.167 336.6 338.486 339.065 339.163C341.198 339.786 346.596 347.943 347.335 348.223Z" fill="#455A64"/>
<path d="M339.065 339.162L338.648 339.022C337.243 339.079 335.877 339.515 334.684 340.285C333.492 341.055 332.514 342.132 331.848 343.412C331.423 344.29 332.698 345.036 333.489 344.29C335.257 340.848 338.869 340.084 340.289 339.9C339.932 339.573 339.516 339.323 339.065 339.162Z" fill="#FAFAFA"/>
<path d="M341.105 340.743C339.778 340.872 338.503 341.342 337.396 342.108C336.289 342.875 335.384 343.914 334.764 345.133C334.339 346.011 335.614 346.748 336.413 346.011C337.012 344.932 337.831 344 338.812 343.28C339.794 342.56 340.916 342.069 342.099 341.84C341.759 341.445 341.428 341.077 341.105 340.743Z" fill="#FAFAFA"/>
<path d="M347.76 343.219L347.335 349.057C347.335 349.057 343.748 351.77 338.606 349.286C338.453 348.961 338.019 343.746 338.019 343.746L347.76 343.219Z" fill="#FFA8A7"/>
<path d="M327.794 345.054C327.794 345.054 328.04 338.846 336.566 337.986L337.059 338.258C336.088 336.699 334.592 335.567 332.86 335.08C330.03 334.325 327.76 335.08 326.298 336.932C324.836 338.785 326.315 343.833 327.794 345.054Z" fill="#FAFAFA"/>
<path d="M350.251 304.35C349.035 294.139 348.551 288.44 348.551 288.44C348.551 288.44 348.304 274.076 349.154 260.819C349.528 254.98 349.715 248.527 349.834 242.705C349.985 236.231 349.486 229.758 348.347 223.389C348.347 223.389 304.572 214.399 304.028 230.993C303.373 250.871 303.883 290.829 304.155 296.018C304.546 303.314 304.079 310.654 304.521 324.816C304.895 336.555 305.753 360.7 305.753 360.7C311.771 362.825 318.894 360.7 318.894 360.7C318.894 360.7 323.425 327.029 323.943 318.644C324.496 309.627 323.569 305.052 323.569 305.052L328.1 263.031C328.1 263.031 328.44 276.517 328.831 283.805C329.222 291.092 330.233 295.543 332.069 309.117C333.659 320.883 337.79 344.624 337.79 344.624C341.005 345.913 344.571 345.913 347.786 344.624C347.786 344.624 351.475 314.561 350.251 304.35Z" fill="#455A64"/>
<path d="M344.25 246.323C344.25 246.323 338.767 253.549 331.729 256.657C331.729 256.657 328.669 282.066 328.695 281.566L327.896 255.99C327.896 255.99 338.419 251.178 344.25 246.323Z" fill="#37474F"/>
<path d="M321.674 157.056L322.363 172.176L336.88 171.377L336.43 153.799L321.674 157.056Z" fill="#FFA8A7"/>
<path d="M351.126 171.096C349.911 166.969 345.686 163.571 340.357 163.405C339.175 163.405 336.676 163.405 336.676 163.405C336.073 165.951 328.516 166.917 322.056 165.327C320.101 165.863 311.984 167.882 310.36 168.435C305.719 170.033 304.283 174.924 303.56 190.57C303.56 190.57 303.705 221.423 303.56 236.147C311.729 240.598 324.36 240.045 333.31 239.106C347.42 237.631 349.52 232.354 349.52 232.354C348.933 223.767 349.29 220.536 349.52 212.055C349.69 205.689 351.466 198.946 352.019 191.729C352.869 181.008 351.959 173.932 351.126 171.096Z" fill="#FFAA51"/>
<path d="M311.95 138.496C311.95 138.496 308.49 143.922 308.89 144.448C309.289 144.975 311.831 145.467 311.831 145.467L311.95 138.496Z" fill="#F28F8F"/>
<path d="M321.521 123.491C314.517 125.018 311.72 127.134 311.321 139.488C310.896 151.507 312.358 155.467 313.871 157.048C314.899 158.136 320.628 158.338 323.518 157.513C327.131 156.486 335.308 153.492 339.133 147.451C343.638 140.348 344.819 130.716 339.983 126.765C333.2 121.243 324.368 122.867 321.521 123.491Z" fill="#FFA8A7"/>
<path d="M313.862 157.083C314.712 157.961 318.707 158.268 321.716 157.891L321.674 156.135C319.178 157.077 316.502 157.402 313.862 157.083Z" fill="#F28F8F"/>
<path d="M310.361 128.126C312.102 129.421 314.265 129.96 316.387 129.628C316.344 130.595 316.593 131.553 317.101 132.367C317.812 133.478 318.891 134.283 320.136 134.632C319.371 136.184 318.963 137.896 318.946 139.637C318.897 140.186 319.013 140.738 319.277 141.217C319.359 141.391 319.488 141.537 319.648 141.637C319.807 141.738 319.992 141.789 320.179 141.784C320.366 141.779 320.548 141.719 320.703 141.611C320.858 141.503 320.98 141.351 321.054 141.174C321.447 140.24 321.943 139.356 322.533 138.54C323.286 137.593 324.351 136.967 325.525 136.784C329.928 136.292 330.472 142.227 328.712 144.686C325.831 148.716 323.391 145.994 323.391 145.994C323.274 147.887 323.549 149.784 324.198 151.559C324.847 153.333 325.856 154.944 327.157 156.284C330.279 157.23 333.587 157.318 336.753 156.539C340.663 150.99 343.12 148.294 345.194 143.509C349.597 133.386 347.472 127.038 344.072 124.36C343.392 119.689 339.822 117.599 335.784 116.642C329.724 115.202 324.054 118.916 318.053 117.52C317.066 117.31 316.09 117.046 315.129 116.73C314.76 116.55 314.338 116.518 313.948 116.642C313.733 116.792 313.566 117.003 313.465 117.249C313.363 117.495 313.333 117.766 313.378 118.029C313.455 119.224 314.628 120.549 315.223 121.19C313.912 121.316 312.591 121.237 311.304 120.953C310.851 120.882 310.39 120.9 309.944 121.006C309.454 121.201 309.038 121.554 308.758 122.013C308.477 122.471 308.348 123.011 308.389 123.552C308.384 124.415 308.558 125.27 308.898 126.059C309.238 126.847 309.736 127.552 310.361 128.126Z" fill="#263238"/>
<path d="M344.182 125.94L348.373 123.385C348.045 122.811 347.509 122.395 346.884 122.229C346.259 122.063 345.596 122.16 345.041 122.499C344.485 122.837 344.082 123.39 343.921 124.036C343.76 124.681 343.854 125.366 344.182 125.94Z" fill="#263238"/>
<path d="M259.335 180.613C260.474 182.826 273.037 206.584 276.692 210.176C279.293 212.739 283.322 214.478 287.495 210.781C295.273 203.889 306.901 192.177 306.901 192.177C316.344 186.496 317.33 173.739 313.063 169.278C313.063 169.278 309.272 166.337 303.603 171.842C294.185 180.991 282.14 194.67 282.14 194.67C279.82 191.509 277.763 189.007 275.255 185.407C273.258 182.536 270.155 179.525 270.028 175.749C269.96 173.8 270.657 171.851 270.946 169.937C271.311 167.443 271.651 164.967 272.051 162.474C272.195 161.984 272.15 161.455 271.923 160.999C271.666 160.731 271.319 160.575 270.954 160.564C270.588 160.552 270.233 160.686 269.96 160.937C269.338 161.51 268.865 162.234 268.583 163.044L267.452 165.591C267.274 165.995 267.019 166.469 266.602 166.469C265.54 166.469 264.97 163.65 264.783 162.878C264.453 161.355 264.324 159.792 264.401 158.233C264.443 157.057 264.469 155.66 263.551 154.967C263.133 154.736 262.665 154.615 262.191 154.615C261.716 154.615 261.249 154.736 260.831 154.967C258.472 155.949 256.553 157.806 255.45 160.173C253.929 163.519 254.6 167.408 255.45 170.841C256.369 174.245 257.673 177.525 259.335 180.613Z" fill="#FFA8A7"/>
<path d="M282.14 194.705C279.769 197.392 278.375 202.712 278.375 202.712C278.375 202.712 278.12 197.076 280.925 193.054L282.14 194.705Z" fill="#F28F8F"/>
<path d="M313.999 167.461C310.293 167.645 306.714 168.637 303.892 171.096C301.75 172.966 286.45 188.91 286.45 188.91C286.45 188.91 289.629 197.69 297.687 202.335L312.426 188.91C312.426 188.91 320.45 177.821 313.999 167.461Z" fill="#FFAA51"/>
<g opacity="0.3">
<path d="M313.999 167.461C310.293 167.645 306.714 168.637 303.892 171.096C301.75 172.966 286.45 188.91 286.45 188.91C286.45 188.91 289.629 197.69 297.687 202.335L312.426 188.91C312.426 188.91 320.45 177.821 313.999 167.461Z" fill="black"/>
</g>
<path d="M293.828 54.5063L260.457 74.3579C260.049 74.6293 259.709 74.9968 259.465 75.4303C259.222 75.8638 259.081 76.3508 259.055 76.8514V118.275C259.081 118.776 259.223 119.262 259.468 119.695C259.714 120.127 260.056 120.492 260.466 120.76L265.464 123.658C265.898 123.885 266.379 124.004 266.866 124.004C267.353 124.004 267.834 123.885 268.269 123.658L301.648 103.815C302.054 103.539 302.391 103.17 302.633 102.735C302.875 102.3 303.015 101.813 303.042 101.312V59.8796C303.017 59.3801 302.876 58.894 302.632 58.4618C302.388 58.0297 302.048 57.6639 301.64 57.3949L296.65 54.4975C296.212 54.2711 295.728 54.154 295.238 54.1555C294.748 54.1571 294.265 54.2772 293.828 54.5063Z" fill="#FFAA51"/>
<path d="M266.9 122.815V81.3907C266.926 80.8898 267.066 80.4024 267.308 79.9677C267.55 79.533 267.888 79.1632 268.294 78.8884L301.674 59.0456C302.439 58.5802 303.068 58.9578 303.068 59.9236V101.339C303.041 101.839 302.901 102.327 302.659 102.761C302.417 103.196 302.079 103.566 301.674 103.841L268.294 123.684C267.495 124.105 266.9 123.728 266.9 122.815Z" fill="#FFAA51"/>
<path opacity="0.2" d="M268.269 123.64C267.832 123.861 267.352 123.976 266.866 123.976C266.38 123.976 265.9 123.861 265.464 123.64L260.466 120.742C260.056 120.474 259.715 120.108 259.469 119.676C259.224 119.244 259.082 118.758 259.055 118.258V76.8513C259.076 76.3271 259.231 75.8181 259.505 75.3762L267.283 79.9682C267.038 80.4002 266.906 80.8902 266.9 81.3905V122.806C266.9 123.649 267.444 124.14 268.269 123.64Z" fill="black"/>
<path opacity="0.4" d="M303.025 59.6162C302.915 58.8874 302.337 58.6328 301.64 59.0455L268.269 78.8883C267.858 79.1579 267.519 79.5291 267.283 79.9682L259.497 75.3763C259.728 74.9555 260.058 74.6021 260.457 74.349L293.837 54.5062C294.271 54.2834 294.75 54.1675 295.235 54.1675C295.72 54.1675 296.198 54.2834 296.633 54.5062L301.631 57.4036C302.002 57.649 302.318 57.9732 302.559 58.3547C302.799 58.7362 302.958 59.1663 303.025 59.6162Z" fill="white"/>
<path d="M259.054 91.0486L247.817 102.858C247.688 102.993 247.59 103.157 247.53 103.337C247.47 103.517 247.449 103.708 247.469 103.898C247.49 104.087 247.551 104.269 247.648 104.431C247.745 104.593 247.875 104.73 248.03 104.833C248.259 104.991 255.808 109.46 255.808 109.46L266.9 95.702L259.054 91.0486Z" fill="#FFAA51"/>
<path opacity="0.1" d="M259.054 91.0486L247.817 102.858C247.688 102.993 247.59 103.157 247.53 103.337C247.47 103.517 247.449 103.708 247.469 103.898C247.49 104.087 247.551 104.269 247.648 104.431C247.745 104.593 247.875 104.73 248.03 104.833C248.259 104.991 255.808 109.46 255.808 109.46L266.9 95.702L259.054 91.0486Z" fill="black"/>
<path d="M266.9 95.7021L255.654 107.52C255.475 107.712 255.359 107.957 255.32 108.22C255.282 108.484 255.324 108.753 255.441 108.991C255.558 109.228 255.744 109.422 255.973 109.546C256.201 109.669 256.461 109.716 256.717 109.68L266.917 108.161C267.962 108.152 267.962 95.7021 266.9 95.7021Z" fill="#FFAA51"/>
<path d="M274.805 85.3504L289 76.8777C290.122 76.2016 291.04 76.746 291.04 78.0893V95.9918C291 96.7216 290.794 97.4316 290.44 98.0644C290.086 98.6973 289.592 99.2354 289 99.6355L274.805 108.108C273.675 108.775 272.765 108.24 272.765 106.897V88.9941C272.804 88.2639 273.009 87.5535 273.363 86.9204C273.718 86.2873 274.212 85.7495 274.805 85.3504Z" fill="white"/>
<path d="M294.347 81.7682L298.282 77.5187C298.758 76.9919 299.132 77.1587 299.132 77.8787V89.96C299.126 90.3146 298.995 90.6546 298.763 90.9165C298.531 91.1783 298.215 91.3439 297.874 91.3823L294.721 91.6721C294.56 91.6895 294.397 91.6715 294.244 91.6191C294.09 91.5667 293.95 91.4812 293.831 91.3683C293.712 91.2554 293.617 91.1176 293.554 90.9641C293.49 90.8106 293.459 90.6449 293.463 90.478V84.0159C293.51 83.1866 293.82 82.3966 294.347 81.7682Z" fill="white"/>
</svg>
