<svg width="1200" height="253" viewBox="0 0 1200 253" fill="none" xmlns="http://www.w3.org/2000/svg">
<path d="M146.072 114.195C146.072 168.02 101.508 211.654 46.536 211.654C-8.43623 211.654 -53 168.02 -53 114.195C-53 60.3695 -8.43623 16.7356 46.536 16.7356C101.508 16.7356 146.072 60.3695 146.072 114.195Z" fill="#7C8046"/>
<ellipse cx="186.288" cy="163.416" rx="91.4927" ry="89.5837" fill="#7C8046"/>
<ellipse cx="297.387" cy="91.0603" rx="55.8005" ry="54.6362" fill="#7C8046"/>
<ellipse cx="400.944" cy="125.516" rx="75.9087" ry="74.3249" fill="#7C8046"/>
<ellipse cx="516.064" cy="91.5524" rx="91.4927" ry="89.5837" fill="#7C8046"/>
<ellipse cx="644.254" cy="120.593" rx="61.8329" ry="60.5428" fill="#7C8046"/>
<ellipse cx="754.85" cy="74.3249" rx="75.9087" ry="74.3249" fill="#7C8046"/>
<ellipse cx="873.992" cy="136.837" rx="88.4764" ry="86.6303" fill="#7C8046"/>
<ellipse cx="980.063" cy="91.0604" rx="65.8546" ry="64.4805" fill="#7C8046"/>
<ellipse cx="1056.47" cy="136.344" rx="75.9087" ry="74.3249" fill="#7C8046"/>
<ellipse cx="1163.05" cy="91.0602" rx="83.952" ry="82.2004" fill="#7C8046"/>
</svg>
