<svg width="121" height="51" viewBox="0 0 121 51" fill="none" xmlns="http://www.w3.org/2000/svg">
<path d="M17.7893 37.05C19.1559 37.35 20.5559 37.85 21.9893 38.55C23.4559 39.25 24.9559 39.9667 26.4893 40.7C28.0226 41.4333 29.5726 42.0667 31.1393 42.6C32.7393 43.1667 34.3393 43.45 35.9393 43.45C36.5726 43.45 37.2226 43.3833 37.8893 43.25C38.5559 43.15 39.2226 42.95 39.8893 42.65C39.9226 42.8167 39.9393 42.9667 39.9393 43.1C39.9393 43.2333 39.9393 43.3833 39.9393 43.55C39.9393 44.3167 39.8226 45.1 39.5893 45.9C39.3559 46.7333 39.0059 47.4833 38.5393 48.15C38.1059 48.8167 37.5393 49.3667 36.8393 49.8C36.1393 50.2667 35.3226 50.5 34.3893 50.5C33.3226 50.5 32.2226 50.2167 31.0893 49.65C29.9893 49.0833 28.8393 48.3833 27.6393 47.55C26.4393 46.7167 25.2059 45.8 23.9393 44.8C22.6726 43.8333 21.3726 42.9333 20.0393 42.1C18.7059 41.2667 17.3393 40.5667 15.9393 40C14.5393 39.4333 13.1226 39.15 11.6893 39.15C11.4893 39.15 11.2893 39.15 11.0893 39.15C10.9226 39.15 10.7393 39.1667 10.5393 39.2V4.6C8.93926 5.36666 7.70592 6.48333 6.83926 7.95C6.00592 9.38333 5.58926 11.1333 5.58926 13.2C5.58926 14.1 5.65592 14.8833 5.78926 15.55C5.95592 16.1833 6.12259 16.7167 6.28926 17.15C6.48926 17.5833 6.68926 17.95 6.88926 18.25C7.08926 18.5167 7.23926 18.7167 7.33926 18.85C5.33926 18.85 3.75592 18.3833 2.58926 17.45C1.42259 16.5167 0.839258 15.05 0.839258 13.05C0.839258 11.35 1.25592 9.76667 2.08926 8.3C2.92259 6.83333 4.02259 5.56667 5.38926 4.5C6.78926 3.4 8.37259 2.55 10.1393 1.95C11.9393 1.31667 13.7893 1 15.6893 1C16.0559 1 16.4059 1.01667 16.7393 1.05C17.1059 1.05 17.4559 1.06667 17.7893 1.1V37.05ZM42.1955 5.2C41.4955 5.66667 40.8788 6.53333 40.3455 7.8C39.8455 9.06666 39.4122 10.5167 39.0455 12.15C38.7122 13.7833 38.4622 15.5 38.2955 17.3C38.1288 19.1 38.0455 20.8 38.0455 22.4C38.0455 24.8 38.2122 26.75 38.5455 28.25C38.9122 29.75 39.3455 30.9167 39.8455 31.75C40.3788 32.5833 40.9288 33.15 41.4955 33.45C42.0955 33.7167 42.6288 33.85 43.0955 33.85C44.0955 33.85 44.9622 33.4 45.6955 32.5C46.4622 31.5667 47.0955 30.3333 47.5955 28.8C48.1288 27.2667 48.5122 25.5167 48.7455 23.55C49.0122 21.55 49.1455 19.4833 49.1455 17.35C49.1455 14.3167 48.8955 11.85 48.3955 9.95C47.9288 8.05 47.2788 6.56667 46.4455 5.5C45.6122 4.43333 44.6288 3.71666 43.4955 3.35C42.3955 2.98333 41.2288 2.8 39.9955 2.8C38.3955 2.8 36.8788 3.05 35.4455 3.55C34.0122 4.01667 32.7622 4.71667 31.6955 5.65C30.6288 6.58333 29.7788 7.73333 29.1455 9.1C28.5455 10.4667 28.2455 12.0167 28.2455 13.75C28.2455 14.9833 28.3788 15.9333 28.6455 16.6C28.9122 17.2333 29.2288 17.8167 29.5955 18.35C27.6955 18.35 26.1955 17.9333 25.0955 17.1C24.0288 16.2333 23.4955 14.8667 23.4955 13C23.4955 11.3 23.9455 9.7 24.8455 8.2C25.7788 6.66667 27.0288 5.33333 28.5955 4.2C30.1622 3.06666 31.9955 2.16667 34.0955 1.5C36.2288 0.833331 38.4955 0.499997 40.8955 0.499997C43.7955 0.499997 46.2288 0.983331 48.1955 1.95C50.1622 2.91667 51.7288 4.23333 52.8955 5.9C54.0622 7.56667 54.8955 9.5 55.3955 11.7C55.8955 13.9 56.1455 16.2167 56.1455 18.65C56.1455 20.1167 56.0622 21.6167 55.8955 23.15C55.7288 24.6833 55.4288 26.1833 54.9955 27.65C54.5955 29.0833 54.0622 30.45 53.3955 31.75C52.7288 33.05 51.8955 34.1833 50.8955 35.15C49.8955 36.1167 48.7122 36.8833 47.3455 37.45C45.9788 38.0167 44.4122 38.3 42.6455 38.3C41.0455 38.3 39.5122 38.0333 38.0455 37.5C36.6122 36.9667 35.3288 36.0833 34.1955 34.85C33.0955 33.6167 32.2122 32 31.5455 30C30.9122 27.9667 30.5955 25.45 30.5955 22.45C30.5955 20.65 30.7288 18.7167 30.9955 16.65C31.2955 14.5833 31.7955 12.6833 32.4955 10.95C33.1955 9.18333 34.1288 7.71667 35.2955 6.55C36.4622 5.38333 37.9122 4.8 39.6455 4.8C40.0122 4.8 40.4122 4.83333 40.8455 4.9C41.2788 4.93333 41.7288 5.03333 42.1955 5.2ZM85.3588 17.1V37.9C85.3588 39.1667 85.1921 40.4167 84.8588 41.65C84.5588 42.8833 84.0088 44 83.2088 45C82.4421 46 81.4088 46.8 80.1088 47.4C78.8088 48.0333 77.1755 48.35 75.2088 48.35C73.6421 48.35 72.3088 48.15 71.2088 47.75C70.1088 47.35 69.2088 46.8167 68.5088 46.15C67.8088 45.4833 67.2921 44.7167 66.9588 43.85C66.6588 43.0167 66.5088 42.15 66.5088 41.25C66.5088 40.5167 66.6088 39.75 66.8088 38.95C67.0421 38.1833 67.3921 37.4833 67.8588 36.85C68.3255 36.1833 68.9421 35.65 69.7088 35.25C70.5088 34.8167 71.4755 34.6 72.6088 34.6C72.9088 34.6 73.2921 34.65 73.7588 34.75C74.2588 34.8167 74.7421 35.0167 75.2088 35.35C75.7088 35.6833 76.1255 36.2 76.4588 36.9C76.7921 37.5667 76.9588 38.5 76.9588 39.7C76.4921 39.2333 76.0421 38.9333 75.6088 38.8C75.1755 38.7 74.7921 38.65 74.4588 38.65C73.1588 38.65 72.2588 38.9667 71.7588 39.6C71.2588 40.2333 71.0088 40.9333 71.0088 41.7C71.0088 42.2 71.0921 42.7 71.2588 43.2C71.4255 43.7 71.6755 44.1333 72.0088 44.5C72.3755 44.9 72.7921 45.2167 73.2588 45.45C73.7588 45.7167 74.3421 45.85 75.0088 45.85C76.1088 45.85 77.0088 45.4333 77.7088 44.6C78.4421 43.8 78.8088 42.5 78.8088 40.7V28.3C78.0421 29.7 77.0255 30.7667 75.7588 31.5C74.4921 32.2 72.9921 32.55 71.2588 32.55C69.5588 32.55 67.9755 32.2 66.5088 31.5C65.0421 30.8 63.7588 29.7833 62.6588 28.45C61.5588 27.1167 60.6921 25.4833 60.0588 23.55C59.4588 21.6167 59.1588 19.4333 59.1588 17C59.1588 14.6667 59.4588 12.5 60.0588 10.5C60.6921 8.46667 61.6088 6.71667 62.8088 5.25C64.0088 3.78333 65.4921 2.63333 67.2588 1.8C69.0588 0.933331 71.1421 0.499997 73.5088 0.499997C74.8088 0.499997 76.1088 0.649997 77.4088 0.949997C78.7088 1.21666 79.8755 1.66666 80.9088 2.3C81.9755 2.93333 82.8255 3.75 83.4588 4.75C84.1255 5.75 84.4588 6.96666 84.4588 8.4C84.4588 9.43333 84.2421 10.2667 83.8088 10.9C83.4088 11.5 82.7088 11.8 81.7088 11.8C81.3088 11.8 80.7421 11.7333 80.0088 11.6C79.2755 11.4333 78.6088 11.0667 78.0088 10.5C78.4755 10.3333 78.8255 9.9 79.0588 9.2C79.2921 8.46666 79.4088 7.83333 79.4088 7.3C79.4088 7 79.3588 6.61667 79.2588 6.15C79.1588 5.68333 78.9588 5.23333 78.6588 4.8C78.3921 4.33333 77.9755 3.95 77.4088 3.65C76.8755 3.31667 76.1588 3.15 75.2588 3.15C73.9255 3.15 72.7255 3.53333 71.6588 4.3C70.6255 5.03333 69.7421 6.03333 69.0088 7.3C68.3088 8.53333 67.7755 9.96667 67.4088 11.6C67.0421 13.2333 66.8588 14.95 66.8588 16.75C66.8588 18.7167 67.0588 20.4167 67.4588 21.85C67.8921 23.2833 68.4255 24.4833 69.0588 25.45C69.7255 26.3833 70.4588 27.0833 71.2588 27.55C72.0588 27.9833 72.8588 28.2 73.6588 28.2C75.2921 28.2 76.6255 27.2667 77.6588 25.4C78.7255 23.5333 79.3255 20.75 79.4588 17.05L85.3588 17.1ZM106.697 5.2C105.997 5.66667 105.381 6.53333 104.847 7.8C104.347 9.06666 103.914 10.5167 103.547 12.15C103.214 13.7833 102.964 15.5 102.797 17.3C102.631 19.1 102.547 20.8 102.547 22.4C102.547 24.8 102.714 26.75 103.047 28.25C103.414 29.75 103.847 30.9167 104.347 31.75C104.881 32.5833 105.431 33.15 105.997 33.45C106.597 33.7167 107.131 33.85 107.597 33.85C108.597 33.85 109.464 33.4 110.197 32.5C110.964 31.5667 111.597 30.3333 112.097 28.8C112.631 27.2667 113.014 25.5167 113.247 23.55C113.514 21.55 113.647 19.4833 113.647 17.35C113.647 14.3167 113.397 11.85 112.897 9.95C112.431 8.05 111.781 6.56667 110.947 5.5C110.114 4.43333 109.131 3.71666 107.997 3.35C106.897 2.98333 105.731 2.8 104.497 2.8C102.897 2.8 101.381 3.05 99.9475 3.55C98.5141 4.01667 97.2641 4.71667 96.1975 5.65C95.1308 6.58333 94.2808 7.73333 93.6475 9.1C93.0475 10.4667 92.7475 12.0167 92.7475 13.75C92.7475 14.9833 92.8808 15.9333 93.1475 16.6C93.4141 17.2333 93.7308 17.8167 94.0975 18.35C92.1975 18.35 90.6975 17.9333 89.5975 17.1C88.5308 16.2333 87.9975 14.8667 87.9975 13C87.9975 11.3 88.4475 9.7 89.3475 8.2C90.2808 6.66667 91.5308 5.33333 93.0975 4.2C94.6641 3.06666 96.4975 2.16667 98.5975 1.5C100.731 0.833331 102.997 0.499997 105.397 0.499997C108.297 0.499997 110.731 0.983331 112.697 1.95C114.664 2.91667 116.231 4.23333 117.397 5.9C118.564 7.56667 119.397 9.5 119.897 11.7C120.397 13.9 120.647 16.2167 120.647 18.65C120.647 20.1167 120.564 21.6167 120.397 23.15C120.231 24.6833 119.931 26.1833 119.497 27.65C119.097 29.0833 118.564 30.45 117.897 31.75C117.231 33.05 116.397 34.1833 115.397 35.15C114.397 36.1167 113.214 36.8833 111.847 37.45C110.481 38.0167 108.914 38.3 107.147 38.3C105.547 38.3 104.014 38.0333 102.547 37.5C101.114 36.9667 99.8308 36.0833 98.6975 34.85C97.5975 33.6167 96.7141 32 96.0475 30C95.4141 27.9667 95.0975 25.45 95.0975 22.45C95.0975 20.65 95.2308 18.7167 95.4975 16.65C95.7975 14.5833 96.2975 12.6833 96.9975 10.95C97.6975 9.18333 98.6308 7.71667 99.7975 6.55C100.964 5.38333 102.414 4.8 104.147 4.8C104.514 4.8 104.914 4.83333 105.347 4.9C105.781 4.93333 106.231 5.03333 106.697 5.2Z" fill="#FFAA51"/>
</svg>
